# xmcd
#
# Track frame offsets:
#	150
#	21380
#	43584
#	72688
#	95417
#	131422
#	156551
#	173056
#
# Disc length: 2708 seconds
#
# Revision: 1
# Processed by: cddbd v1.5.2PL0 Copyright (c) Steve Scherf et al.
# Submitted via: EasyCDDAExtractor 15.3.0.1
#
DISCID=6f0a9208
DTITLE=Barry Richman and The Well Hungarians - Live at Darwins
DYEAR=2000
DGENRE=Blues
TTITLE0=Chicken Shack
TTITLE1=Southbound
TTITLE2=How Blue Can You Get
TTITLE3=Please Don't Treat Me Wrong
TTITLE4=Don't Want You No More - Not My Cross To Bear
TTITLE5=Mercy, Mercy
TTITLE6=Someday Baby
TTITLE7=Europa
EXTD=
EXTT0=
EXTT1=
EXTT2=
EXTT3=
EXTT4=
EXTT5=
EXTT6=
EXTT7=
PLAYORDER=
